<?xml version="1.0" encoding="UTF-8" standalone="no" ?>
<!DOCTYPE svg PUBLIC "-//W3C//DTD SVG 1.1//EN" "http://www.w3.org/Graphics/SVG/1.1/DTD/svg11.dtd">
<svg xmlns="http://www.w3.org/2000/svg" xmlns:xlink="http://www.w3.org/1999/xlink" version="1.1" width="221" height="175" viewBox="0 0 221 175" xml:space="preserve">
<desc>Created with Fabric.js 4.6.0</desc>
<defs>
</defs>
<g transform="matrix(1 0 0 1 500 220)" id="BAxg5DHxISz5xfdwLjMA6"  >
<path style="stroke: rgb(0,0,0); stroke-width: 1; stroke-dasharray: none; stroke-linecap: butt; stroke-dashoffset: 0; stroke-linejoin: miter; stroke-miterlimit: 4; fill: rgb(255,255,255); fill-opacity: 0; fill-rule: nonzero; opacity: 1;" vector-effect="non-scaling-stroke"  transform=" translate(0, 0)" d="M 0 0" stroke-linecap="round" />
</g>
<g transform="matrix(0.71 0.71 -0.48 0.48 57 117)" id="Hn-Knc6aBIAF9_sczw8PR"  >
<path style="stroke: rgb(0,0,0); stroke-width: 1; stroke-dasharray: none; stroke-linecap: butt; stroke-dashoffset: 0; stroke-linejoin: miter; stroke-miterlimit: 4; fill: rgb(0,0,0); fill-rule: nonzero; opacity: 1;" vector-effect="non-scaling-stroke"  transform=" translate(0, 0)" d="M 10 55 L -10 55 L -10 -55 L 10 -55 z" stroke-linecap="round" />
</g>
<g transform="matrix(0.51 0.51 -1.13 1.13 103 71)" id="Zqgy9K23mjnHQBMsJULic"  >
<path style="stroke: rgb(0,0,0); stroke-width: 1; stroke-dasharray: none; stroke-linecap: butt; stroke-dashoffset: 0; stroke-linejoin: miter; stroke-miterlimit: 4; fill: rgb(0,0,0); fill-rule: nonzero; opacity: 1;" vector-effect="non-scaling-stroke"  transform=" translate(0, 0)" d="M -60 12.2973 C -60 13.78996 -57.29851 15 -53.96605 15 L 53.96605 15 L 53.96605 15 C 57.29851 15 60 13.78996 60 12.2973 L 60 -12.29729 L 60 -12.29729 C 60 -13.789950000000001 57.29851 -14.99999 53.96605 -14.99999 L -53.96605 -14.99999 L -53.96605 -14.99999 C -57.29851 -14.99999 -60 -13.789950000000001 -60 -12.29729 z" stroke-linecap="round" />
</g>
<g transform="matrix(0.7 0.7 -0.71 0.71 34.5 139)" id="byo1GzqdSbg3PEFvy6hAU"  >
<path style="stroke: rgb(0,0,0); stroke-width: 1; stroke-dasharray: none; stroke-linecap: butt; stroke-dashoffset: 0; stroke-linejoin: miter; stroke-miterlimit: 4; fill: rgb(0,0,0); fill-rule: nonzero; opacity: 1;" vector-effect="non-scaling-stroke"  transform=" translate(0, 0)" d="M -9.81911 -10 L -15.140039999999999 1.9379299999999997 L -15.140039999999999 1.9379299999999997 C -16.08213 4.0515799999999995 -15.390709999999999 6.5452699999999995 -13.499979999999999 7.85304 L -11.57453 9.18482 L -11.57453 9.18482 C -10.806709999999999 9.7159 -9.898589999999999 10 -8.96884 10 L 8.581879999999998 10 L 8.581879999999998 10 C 9.253779999999999 10 9.916159999999998 9.83903 10.514919999999998 9.53023 L 12.849329999999998 8.326319999999999 L 12.849329999999998 8.326319999999999 C 15.130779999999998 7.1497199999999985 16.15262 4.407089999999998 15.207479999999999 1.9970599999999994 L 10.502559999999999 -10 z" stroke-linecap="round" />
</g>
<g transform="matrix(NaN NaN NaN NaN 1 26)" id="lje2XcjchSCYbrtEEcCFl"  >
<path style="stroke: rgb(0,0,0); stroke-width: 1; stroke-dasharray: none; stroke-linecap: butt; stroke-dashoffset: 0; stroke-linejoin: miter; stroke-miterlimit: 4; fill: rgb(255,255,255); fill-opacity: 0; fill-rule: nonzero; opacity: 1;" vector-effect="non-scaling-stroke"  transform=" translate(0, 0)" d="M 0 0" stroke-linecap="round" />
</g>
<g transform="matrix(0.71 0.71 -0.71 0.71 61.5 29.5)" id="8Thm--x5SqtmnOauobKKT"  >
<path style="stroke: rgb(0,0,0); stroke-width: 1; stroke-dasharray: none; stroke-linecap: butt; stroke-dashoffset: 0; stroke-linejoin: miter; stroke-miterlimit: 4; fill: rgb(0,0,0); fill-rule: nonzero; opacity: 1;" vector-effect="non-scaling-stroke"  transform=" translate(0, 0)" d="M 4.50547 -21.72367 C 5.23618 -22.313579999999998 6.24528 -22.434829999999998 7.097709999999999 -22.035159999999998 C 7.950139999999999 -21.635479999999998 8.49348 -20.78634 8.49348 -19.85382 L 8.49348 -18.92642 L 8.49348 -18.92642 C 8.49348 -16.72657 10.29778 -14.94325 12.5235 -14.94325 L 15.463470000000001 -14.94325 L 15.463470000000001 -14.94325 C 17.68919 -14.94325 19.49349 -13.159920000000001 19.49349 -10.960080000000001 L 19.49349 11.07357 L 19.49349 11.07357 C 19.49349 13.27342 17.68919 15.05674 15.463470000000001 15.05674 L 12.5235 15.05674 L 12.5235 15.05674 C 10.29778 15.05674 8.49348 16.84007 8.49348 19.03991 L 8.49348 19.931269999999998 L 8.49348 19.931269999999998 C 8.49348 20.84668 7.9527 21.677799999999998 7.10998 22.05756 C 6.26726 22.43732 5.2778 22.295769999999997 4.5786 21.695439999999998 L -18.22961 2.112449999999999 L -18.22961 2.112449999999999 C -19.04712 1.410539999999999 -19.50948 0.38774999999999915 -19.49305 -0.682430000000001 C -19.47662 -1.752620000000001 -18.98309 -2.761070000000001 -18.14441 -3.438150000000001 z" stroke-linecap="round" />
</g>
<g transform="matrix(-0.7 -0.7 -0.71 0.71 144 110.5)" id="_It-1mt-tqiny0lya2u_r"  >
<path style="stroke: rgb(0,0,0); stroke-width: 1; stroke-dasharray: none; stroke-linecap: butt; stroke-dashoffset: 0; stroke-linejoin: miter; stroke-miterlimit: 4; fill: rgb(0,0,0); fill-rule: nonzero; opacity: 1;" vector-effect="non-scaling-stroke"  transform=" translate(0, 0)" d="M 5.03364 -21.81658 C 5.78502 -22.399099999999997 6.8062000000000005 -22.5062 7.664160000000001 -22.09245 C 8.522120000000001 -21.6787 9.06653 -20.81662 9.06653 -19.87175 L 9.06653 -18.93196 L 9.06653 -18.93196 C 9.06653 -16.72902 10.87023 -14.94318 13.0952 -14.94318 L 16.037860000000002 -14.94318 L 16.037860000000002 -14.94318 C 18.26283 -14.94318 20.06653 -13.15734 20.06653 -10.9544 L 20.06653 11.06803 L 20.06653 11.06803 C 20.06653 13.27097 18.26283 15.05681 16.037860000000002 15.05681 L 13.095200000000002 15.05681 L 13.095200000000002 15.05681 C 10.870230000000003 15.05681 9.066530000000002 16.84265 9.066530000000002 19.04559 L 9.066530000000002 19.94863 L 9.066530000000002 19.94863 C 9.066530000000002 20.87714 8.524090000000001 21.72185 7.674870000000002 22.11577 C 6.825650000000002 22.509690000000003 5.822950000000002 22.38172 5.1023900000000015 21.78745 L -18.77785 2.0926800000000014 L -18.77785 2.0926800000000014 C -19.60894 1.4072500000000014 -20.08247 0.3865300000000014 -20.06612 -0.6842899999999985 C -20.049770000000002 -1.7551099999999986 -19.54531 -2.7611999999999983 -18.69368 -3.4214399999999987 z" stroke-linecap="round" />
</g>
<g transform="matrix(0.71 0.71 -0.71 0.71 138.33 150.34)" id="i_1ZL49Ke-19Z_GG-f83B"  >
<path style="stroke: rgb(0,0,0); stroke-width: 1; stroke-dasharray: none; stroke-linecap: butt; stroke-dashoffset: 0; stroke-linejoin: miter; stroke-miterlimit: 4; fill: rgb(0,0,0); fill-rule: nonzero; opacity: 1;" vector-effect="non-scaling-stroke"  transform=" translate(0, 0)" d="M -54.30093 58.33889 C -54.500640000000004 58.60537 -54.46032 58.98065 -54.20854 59.19875 C -53.95677 59.41683999999999 -53.57907 59.40367 -53.34316 59.168549999999996 L 54.29941000000001 -48.10781 L 54.29941000000001 -48.10781 C 54.45646000000001 -48.26433 54.47109000000001 -48.51356 54.33343000000001 -48.68733 C 54.19577000000001 -48.8611 53.949540000000006 -48.904210000000006 53.76090000000001 -48.78757 L 37.70334000000001 -38.85897 L 37.70334000000001 -38.85897 C 37.01429000000001 -38.43292 36.164240000000014 -38.35691 35.41036000000001 -38.65393 C 34.65649000000001 -38.950950000000006 34.08736000000001 -39.58612 33.87516000000001 -40.367250000000006 L 29.00344000000001 -58.301030000000004 L 29.00344000000001 -58.301030000000004 C 28.842450000000007 -58.89368 28.31974000000001 -59.31692 27.70586000000001 -59.351690000000005 C 27.091980000000007 -59.38646000000001 26.52471000000001 -59.02496000000001 26.297650000000008 -58.45429000000001 L 20.73034000000001 -44.46180000000001 L 20.73034000000001 -44.46180000000001 C 20.45599000000001 -43.77226000000001 19.89105000000001 -43.23869000000001 19.18639000000001 -43.003580000000014 C 18.48173000000001 -42.768470000000015 17.70911000000001 -42.85576000000001 17.07485000000001 -43.24214000000001 L -7.966959999999993 -58.49719000000002 L -7.966959999999993 -58.49719000000002 C -8.391709999999993 -58.75594000000002 -8.940939999999992 -58.67438000000002 -9.271939999999994 -58.30342000000002 C -9.602939999999993 -57.93245000000002 -9.621019999999994 -57.37819000000002 -9.314909999999994 -56.98649000000002 L 11.140790000000006 -30.812050000000017 L 11.140790000000006 -30.812050000000017 C 11.962220000000006 -29.760980000000018 12.283770000000006 -28.404380000000018 12.021360000000007 -27.097070000000016 C 11.758940000000006 -25.789760000000015 10.938660000000006 -24.66177000000002 9.775050000000007 -24.008130000000016 L -50.49522999999999 9.847729999999984 L -50.49522999999999 9.847729999999984 C -50.92324999999999 10.088159999999984 -51.10068999999999 10.612359999999985 -50.90652999999999 11.062849999999985 C -50.71236999999999 11.513339999999985 -50.20918999999999 11.744959999999985 -49.740129999999986 11.599749999999984 L -14.914019999999987 0.8190499999999847 L -14.914019999999987 0.8190499999999847 C -14.232679999999986 0.6081399999999848 -13.492859999999986 0.8594899999999848 -13.081639999999986 1.4415899999999846 C -12.670419999999986 2.0236899999999847 -12.681399999999986 2.8040699999999843 -13.108829999999985 3.3744099999999846 z" stroke-linecap="round" />
</g>
</svg>